# xmcd
#
# Track frame offsets: 
#        151
#        11742
#        25617
#        36076
#        48927
#        68176
#        82271
#        101622
#        106973
#        120474
#        135244
#        150085
#        160256
#        173802
#        187501
#        199737
#        211096
#        223639
#
# Disc length: 3154 seconds
#
# Revision: 1
# Processed by: cddbd v1.5.2PL0 Copyright (c) Steve Scherf et al.
# Submitted via: ExactAudioCopy v0.95b2
#
DISCID=dc0c5012
DTITLE=Leadbelly - the essential: disk two
DYEAR=1900
DGENRE=Blues
TTITLE0=Diggin' My Potatoes
TTITLE1=My Friend Blind Lemon
TTITLE2=Leaving Blues
TTITLE3=Gallis Pole
TTITLE4=John Hardy
TTITLE5=TB Blues
TTITLE6=I'm Leavin' On The Mornin Train
TTITLE7=Big Fat Woman
TTITLE8=Death Letter Blues (Part 1)
TTITLE9=Sail On, Little Girl, Sail On
TTITLE10=Defence Blues
TTITLE11=How Do You Know/ Don't Mind The Weather
TTITLE12=Red River Blues
TTITLE13=New York City
TTITLE14=Salty Dog
TTITLE15=Thirty Days In The Work House
TTITLE16=Grasshoppers In My Pillow
TTITLE17=Good Morning Blues
EXTD=ID3G: 0
EXTT0=
EXTT1=
EXTT2=
EXTT3=
EXTT4=
EXTT5=
EXTT6=
EXTT7=
EXTT8=
EXTT9=
EXTT10=
EXTT11=
EXTT12=
EXTT13=
EXTT14=
EXTT15=
EXTT16=
EXTT17=
PLAYORDER=
